<?xml version="1.0" encoding="UTF-8" standalone="no"?>
<!DOCTYPE svg PUBLIC "-//W3C//DTD SVG 1.1//EN"
 "http://www.w3.org/Graphics/SVG/1.1/DTD/svg11.dtd">
<!-- Generated by graphviz version 2.43.0 (0)
 -->
<!-- Title: meu&#45;diagrama Pages: 1 -->
<svg width="1643pt" height="1993pt"
 viewBox="0.00 0.00 1643.00 1993.00" xmlns="http://www.w3.org/2000/svg" xmlns:xlink="http://www.w3.org/1999/xlink">
<g id="graph0" class="graph" transform="scale(1 1) rotate(0) translate(144 1849)">
<title>meu&#45;diagrama</title>
<polygon fill="white" stroke="transparent" points="-144,144 -144,-1849 1499,-1849 1499,144 -144,144"/>
<text text-anchor="middle" x="677.5" y="-9" font-family="Sans-Serif" font-size="15.00" fill="#2d3436">meu&#45;diagrama</text>
<g id="clust1" class="cluster">
<title>cluster_Frontend</title>
<path fill="#e5f5fd" stroke="#aeb6be" d="M159,-1522C159,-1522 562,-1522 562,-1522 568,-1522 574,-1528 574,-1534 574,-1534 574,-1685 574,-1685 574,-1691 568,-1697 562,-1697 562,-1697 159,-1697 159,-1697 153,-1697 147,-1691 147,-1685 147,-1685 147,-1534 147,-1534 147,-1528 153,-1522 159,-1522"/>
<text text-anchor="middle" x="185.5" y="-1683.4" font-family="Sans-Serif" font-size="12.00" fill="#2d3436">Frontend</text>
</g>
<g id="clust2" class="cluster">
<title>cluster_API Gateway + Segurança</title>
<path fill="#e5f5fd" stroke="#aeb6be" d="M469,-1339C469,-1339 790,-1339 790,-1339 796,-1339 802,-1345 802,-1351 802,-1351 802,-1502 802,-1502 802,-1508 796,-1514 790,-1514 790,-1514 469,-1514 469,-1514 463,-1514 457,-1508 457,-1502 457,-1502 457,-1351 457,-1351 457,-1345 463,-1339 469,-1339"/>
<text text-anchor="middle" x="551.5" y="-1500.4" font-family="Sans-Serif" font-size="12.00" fill="#2d3436">API Gateway + Segurança</text>
</g>
<g id="clust3" class="cluster">
<title>cluster_ECS Fargate &#45; Domínios de Negócio</title>
<path fill="#e5f5fd" stroke="#aeb6be" d="M624,-76C624,-76 864,-76 864,-76 870,-76 876,-82 876,-88 876,-88 876,-1319 876,-1319 876,-1325 870,-1331 864,-1331 864,-1331 624,-1331 624,-1331 618,-1331 612,-1325 612,-1319 612,-1319 612,-88 612,-88 612,-82 618,-76 624,-76"/>
<text text-anchor="middle" x="744" y="-1317.4" font-family="Sans-Serif" font-size="12.00" fill="#2d3436">ECS Fargate &#45; Domínios de Negócio</text>
</g>
<g id="clust4" class="cluster">
<title>cluster_Fila de Pagamento com Idempotência</title>
<path fill="#e5f5fd" stroke="#aeb6be" d="M926,-1243C926,-1243 1174,-1243 1174,-1243 1180,-1243 1186,-1249 1186,-1255 1186,-1255 1186,-1586 1186,-1586 1186,-1592 1180,-1598 1174,-1598 1174,-1598 926,-1598 926,-1598 920,-1598 914,-1592 914,-1586 914,-1586 914,-1255 914,-1255 914,-1249 920,-1243 926,-1243"/>
<text text-anchor="middle" x="1050" y="-1584.4" font-family="Sans-Serif" font-size="12.00" fill="#2d3436">Fila de Pagamento com Idempotência</text>
</g>
<g id="clust5" class="cluster">
<title>cluster_Notificações Assíncronas</title>
<path fill="#e5f5fd" stroke="#aeb6be" d="M926,-453C926,-453 1335,-453 1335,-453 1341,-453 1347,-459 1347,-465 1347,-465 1347,-616 1347,-616 1347,-622 1341,-628 1335,-628 1335,-628 926,-628 926,-628 920,-628 914,-622 914,-616 914,-616 914,-465 914,-465 914,-459 920,-453 926,-453"/>
<text text-anchor="middle" x="1012.5" y="-614.4" font-family="Sans-Serif" font-size="12.00" fill="#2d3436">Notificações Assíncronas</text>
</g>
<g id="clust6" class="cluster">
<title>cluster_Persistência</title>
<path fill="#e5f5fd" stroke="#aeb6be" d="M926,-33C926,-33 1019,-33 1019,-33 1025,-33 1031,-39 1031,-45 1031,-45 1031,-433 1031,-433 1031,-439 1025,-445 1019,-445 1019,-445 926,-445 926,-445 920,-445 914,-439 914,-433 914,-433 914,-45 914,-45 914,-39 920,-33 926,-33"/>
<text text-anchor="middle" x="967.5" y="-431.4" font-family="Sans-Serif" font-size="12.00" fill="#2d3436">Persistência</text>
</g>
<g id="clust7" class="cluster">
<title>cluster_Observabilidade</title>
<path fill="#e5f5fd" stroke="#aeb6be" d="M1236,-848C1236,-848 1341,-848 1341,-848 1347,-848 1353,-854 1353,-860 1353,-860 1353,-1011 1353,-1011 1353,-1017 1347,-1023 1341,-1023 1341,-1023 1236,-1023 1236,-1023 1230,-1023 1224,-1017 1224,-1011 1224,-1011 1224,-860 1224,-860 1224,-854 1230,-848 1236,-848"/>
<text text-anchor="middle" x="1288.5" y="-1009.4" font-family="Sans-Serif" font-size="12.00" fill="#2d3436">Observabilidade</text>
</g>
<!-- a956b87e5d1844f6a5f874b18a860c4c -->
<g id="node1" class="node">
<title>a956b87e5d1844f6a5f874b18a860c4c</title>
<image xlink:href="/usr/local/lib/python3.11/dist-packages/resources/aws/general/user.png" width="101px" height="101px" preserveAspectRatio="xMinYMin meet" x="0" y="-1649.5"/>
<text text-anchor="middle" x="50.5" y="-1534.1" font-family="Sans-Serif" font-size="13.00" fill="#2d3436">Usuário Web</text>
</g>
<!-- bda8f91a221b4f5ebafc82a3c0cc6c89 -->
<g id="node2" class="node">
<title>bda8f91a221b4f5ebafc82a3c0cc6c89</title>
<image xlink:href="/usr/local/lib/python3.11/dist-packages/resources/aws/network/route-53.png" width="101px" height="101px" preserveAspectRatio="xMinYMin meet" x="155" y="-1649.5"/>
<text text-anchor="middle" x="205.5" y="-1534.1" font-family="Sans-Serif" font-size="13.00" fill="#2d3436">Route 53</text>
</g>
<!-- a956b87e5d1844f6a5f874b18a860c4c&#45;&gt;bda8f91a221b4f5ebafc82a3c0cc6c89 -->
<g id="edge1" class="edge">
<title>a956b87e5d1844f6a5f874b18a860c4c&#45;&gt;bda8f91a221b4f5ebafc82a3c0cc6c89</title>
<path fill="none" stroke="#7b8894" d="M101.25,-1599C101.25,-1599 144.9,-1599 144.9,-1599"/>
<polygon fill="#7b8894" stroke="#7b8894" points="144.9,-1602.5 154.9,-1599 144.9,-1595.5 144.9,-1602.5"/>
</g>
<!-- 5f9c00ab444b463e8c8d2480d5eb6b1d -->
<g id="node3" class="node">
<title>5f9c00ab444b463e8c8d2480d5eb6b1d</title>
<image xlink:href="/usr/local/lib/python3.11/dist-packages/resources/aws/network/cloudfront.png" width="101px" height="101px" preserveAspectRatio="xMinYMin meet" x="310" y="-1649.5"/>
<text text-anchor="middle" x="360.5" y="-1534.1" font-family="Sans-Serif" font-size="13.00" fill="#2d3436">CloudFront</text>
</g>
<!-- bda8f91a221b4f5ebafc82a3c0cc6c89&#45;&gt;5f9c00ab444b463e8c8d2480d5eb6b1d -->
<g id="edge2" class="edge">
<title>bda8f91a221b4f5ebafc82a3c0cc6c89&#45;&gt;5f9c00ab444b463e8c8d2480d5eb6b1d</title>
<path fill="none" stroke="#7b8894" d="M256.25,-1599C256.25,-1599 299.9,-1599 299.9,-1599"/>
<polygon fill="#7b8894" stroke="#7b8894" points="299.9,-1602.5 309.9,-1599 299.9,-1595.5 299.9,-1602.5"/>
</g>
<!-- 874443ce111647958cc647fc182f511c -->
<g id="node4" class="node">
<title>874443ce111647958cc647fc182f511c</title>
<image xlink:href="/usr/local/lib/python3.11/dist-packages/resources/aws/storage/simple-storage-service-s3.png" width="101px" height="101px" preserveAspectRatio="xMinYMin meet" x="465" y="-1649.5"/>
<text text-anchor="middle" x="515.5" y="-1534.1" font-family="Sans-Serif" font-size="13.00" fill="#2d3436">S3 &#45; SPA Frontend</text>
</g>
<!-- 5f9c00ab444b463e8c8d2480d5eb6b1d&#45;&gt;874443ce111647958cc647fc182f511c -->
<g id="edge3" class="edge">
<title>5f9c00ab444b463e8c8d2480d5eb6b1d&#45;&gt;874443ce111647958cc647fc182f511c</title>
<path fill="none" stroke="#7b8894" d="M411.25,-1599C411.25,-1599 454.9,-1599 454.9,-1599"/>
<polygon fill="#7b8894" stroke="#7b8894" points="454.9,-1602.5 464.9,-1599 454.9,-1595.5 454.9,-1602.5"/>
</g>
<!-- 3d477ddfc07444edbb57695ef799b8c1 -->
<g id="node5" class="node">
<title>3d477ddfc07444edbb57695ef799b8c1</title>
<image xlink:href="/usr/local/lib/python3.11/dist-packages/resources/aws/network/api-gateway.png" width="101px" height="101px" preserveAspectRatio="xMinYMin meet" x="465" y="-1466.5"/>
<text text-anchor="middle" x="515.5" y="-1351.1" font-family="Sans-Serif" font-size="13.00" fill="#2d3436">API Gateway (com API Key)</text>
</g>
<!-- 5f9c00ab444b463e8c8d2480d5eb6b1d&#45;&gt;3d477ddfc07444edbb57695ef799b8c1 -->
<g id="edge4" class="edge">
<title>5f9c00ab444b463e8c8d2480d5eb6b1d&#45;&gt;3d477ddfc07444edbb57695ef799b8c1</title>
<path fill="none" stroke="#7b8894" d="M361,-1530.34C361,-1478.41 361,-1416 361,-1416 361,-1416 454.91,-1416 454.91,-1416"/>
<polygon fill="#7b8894" stroke="#7b8894" points="454.91,-1419.5 464.91,-1416 454.91,-1412.5 454.91,-1419.5"/>
</g>
<!-- 313762c07d9540bba4aac7629fff3a35 -->
<g id="node6" class="node">
<title>313762c07d9540bba4aac7629fff3a35</title>
<image xlink:href="/usr/local/lib/python3.11/dist-packages/resources/aws/compute/lambda.png" width="101px" height="101px" preserveAspectRatio="xMinYMin meet" x="693" y="-1466.5"/>
<text text-anchor="middle" x="743.5" y="-1351.1" font-family="Sans-Serif" font-size="13.00" fill="#2d3436">Lambda Auth</text>
</g>
<!-- 3d477ddfc07444edbb57695ef799b8c1&#45;&gt;313762c07d9540bba4aac7629fff3a35 -->
<g id="edge5" class="edge">
<title>3d477ddfc07444edbb57695ef799b8c1&#45;&gt;313762c07d9540bba4aac7629fff3a35</title>
<path fill="none" stroke="#7b8894" d="M566.1,-1416C566.1,-1416 682.65,-1416 682.65,-1416"/>
<polygon fill="#7b8894" stroke="#7b8894" points="682.65,-1419.5 692.65,-1416 682.65,-1412.5 682.65,-1419.5"/>
</g>
<!-- 6783f0f1430641d09fc48f12bea3ce4b -->
<g id="node7" class="node">
<title>6783f0f1430641d09fc48f12bea3ce4b</title>
<image xlink:href="/usr/local/lib/python3.11/dist-packages/resources/aws/compute/elastic-container-service.png" width="101px" height="101px" preserveAspectRatio="xMinYMin meet" x="693" y="-923.5"/>
<text text-anchor="middle" x="743.5" y="-808.1" font-family="Sans-Serif" font-size="13.00" fill="#2d3436">Usuários</text>
</g>
<!-- 3d477ddfc07444edbb57695ef799b8c1&#45;&gt;6783f0f1430641d09fc48f12bea3ce4b -->
<g id="edge6" class="edge">
<title>3d477ddfc07444edbb57695ef799b8c1&#45;&gt;6783f0f1430641d09fc48f12bea3ce4b</title>
<path fill="none" stroke="#7b8894" d="M538,-1347.23C538,-1201.11 538,-873 538,-873 538,-873 682.97,-873 682.97,-873"/>
<polygon fill="#7b8894" stroke="#7b8894" points="682.97,-876.5 692.97,-873 682.97,-869.5 682.97,-876.5"/>
</g>
<!-- 78223e4eb34e463eb59450b6267652ec -->
<g id="node8" class="node">
<title>78223e4eb34e463eb59450b6267652ec</title>
<image xlink:href="/usr/local/lib/python3.11/dist-packages/resources/aws/compute/elastic-container-service.png" width="101px" height="101px" preserveAspectRatio="xMinYMin meet" x="693" y="-743.5"/>
<text text-anchor="middle" x="743.5" y="-628.1" font-family="Sans-Serif" font-size="13.00" fill="#2d3436">Filmes</text>
</g>
<!-- 3d477ddfc07444edbb57695ef799b8c1&#45;&gt;78223e4eb34e463eb59450b6267652ec -->
<g id="edge7" class="edge">
<title>3d477ddfc07444edbb57695ef799b8c1&#45;&gt;78223e4eb34e463eb59450b6267652ec</title>
<path fill="none" stroke="#7b8894" d="M523,-1347.33C523,-1166.86 523,-693 523,-693 523,-693 682.91,-693 682.91,-693"/>
<polygon fill="#7b8894" stroke="#7b8894" points="682.91,-696.5 692.91,-693 682.91,-689.5 682.91,-696.5"/>
</g>
<!-- 799d75f4146a4d80b5bdb1b78ca75f4f -->
<g id="node9" class="node">
<title>799d75f4146a4d80b5bdb1b78ca75f4f</title>
<image xlink:href="/usr/local/lib/python3.11/dist-packages/resources/aws/compute/elastic-container-service.png" width="101px" height="101px" preserveAspectRatio="xMinYMin meet" x="693" y="-383.5"/>
<text text-anchor="middle" x="743.5" y="-268.1" font-family="Sans-Serif" font-size="13.00" fill="#2d3436">Sessões</text>
</g>
<!-- 3d477ddfc07444edbb57695ef799b8c1&#45;&gt;799d75f4146a4d80b5bdb1b78ca75f4f -->
<g id="edge8" class="edge">
<title>3d477ddfc07444edbb57695ef799b8c1&#45;&gt;799d75f4146a4d80b5bdb1b78ca75f4f</title>
<path fill="none" stroke="#7b8894" d="M494,-1347.43C494,-1109.37 494,-333 494,-333 494,-333 682.71,-333 682.71,-333"/>
<polygon fill="#7b8894" stroke="#7b8894" points="682.71,-336.5 692.71,-333 682.71,-329.5 682.71,-336.5"/>
</g>
<!-- f5ad6d0914854e5fae13866050fbd716 -->
<g id="node10" class="node">
<title>f5ad6d0914854e5fae13866050fbd716</title>
<image xlink:href="/usr/local/lib/python3.11/dist-packages/resources/aws/compute/elastic-container-service.png" width="101px" height="101px" preserveAspectRatio="xMinYMin meet" x="693" y="-563.5"/>
<text text-anchor="middle" x="743.5" y="-448.1" font-family="Sans-Serif" font-size="13.00" fill="#2d3436">Produtos</text>
</g>
<!-- 3d477ddfc07444edbb57695ef799b8c1&#45;&gt;f5ad6d0914854e5fae13866050fbd716 -->
<g id="edge9" class="edge">
<title>3d477ddfc07444edbb57695ef799b8c1&#45;&gt;f5ad6d0914854e5fae13866050fbd716</title>
<path fill="none" stroke="#7b8894" d="M509,-1347.39C509,-1136.66 509,-513 509,-513 509,-513 682.91,-513 682.91,-513"/>
<polygon fill="#7b8894" stroke="#7b8894" points="682.91,-516.5 692.91,-513 682.91,-509.5 682.91,-516.5"/>
</g>
<!-- 9e6ac9d47a304221b90e0e2c72a44192 -->
<g id="node11" class="node">
<title>9e6ac9d47a304221b90e0e2c72a44192</title>
<image xlink:href="/usr/local/lib/python3.11/dist-packages/resources/aws/compute/elastic-container-service.png" width="101px" height="101px" preserveAspectRatio="xMinYMin meet" x="693" y="-203.5"/>
<text text-anchor="middle" x="743.5" y="-88.1" font-family="Sans-Serif" font-size="13.00" fill="#2d3436">Ingressos</text>
</g>
<!-- 3d477ddfc07444edbb57695ef799b8c1&#45;&gt;9e6ac9d47a304221b90e0e2c72a44192 -->
<g id="edge10" class="edge">
<title>3d477ddfc07444edbb57695ef799b8c1&#45;&gt;9e6ac9d47a304221b90e0e2c72a44192</title>
<path fill="none" stroke="#7b8894" d="M480,-1347.2C480,-1083.64 480,-153 480,-153 480,-153 682.69,-153 682.69,-153"/>
<polygon fill="#7b8894" stroke="#7b8894" points="682.69,-156.5 692.69,-153 682.69,-149.5 682.69,-156.5"/>
</g>
<!-- 1bf2202122254a179d001e9a66c06e10 -->
<g id="node12" class="node">
<title>1bf2202122254a179d001e9a66c06e10</title>
<image xlink:href="/usr/local/lib/python3.11/dist-packages/resources/aws/compute/elastic-container-service.png" width="101px" height="101px" preserveAspectRatio="xMinYMin meet" x="693" y="-1283.5"/>
<text text-anchor="middle" x="743.5" y="-1168.1" font-family="Sans-Serif" font-size="13.00" fill="#2d3436">Pedidos</text>
</g>
<!-- 3d477ddfc07444edbb57695ef799b8c1&#45;&gt;1bf2202122254a179d001e9a66c06e10 -->
<g id="edge11" class="edge">
<title>3d477ddfc07444edbb57695ef799b8c1&#45;&gt;1bf2202122254a179d001e9a66c06e10</title>
<path fill="none" stroke="#7b8894" d="M552,-1347.34C552,-1295.41 552,-1233 552,-1233 552,-1233 682.94,-1233 682.94,-1233"/>
<polygon fill="#7b8894" stroke="#7b8894" points="682.94,-1236.5 692.94,-1233 682.94,-1229.5 682.94,-1236.5"/>
</g>
<!-- 02e6a1a5843240fea277eae180ccf0b9 -->
<g id="node22" class="node">
<title>02e6a1a5843240fea277eae180ccf0b9</title>
<image xlink:href="/usr/local/lib/python3.11/dist-packages/resources/aws/management/cloudwatch.png" width="101px" height="101px" preserveAspectRatio="xMinYMin meet" x="1238" y="-975.5"/>
<text text-anchor="middle" x="1288.5" y="-860.1" font-family="Sans-Serif" font-size="13.00" fill="#2d3436">CloudWatch Logs &amp; Alarms</text>
</g>
<!-- 313762c07d9540bba4aac7629fff3a35&#45;&gt;02e6a1a5843240fea277eae180ccf0b9 -->
<g id="edge38" class="edge">
<title>313762c07d9540bba4aac7629fff3a35&#45;&gt;02e6a1a5843240fea277eae180ccf0b9</title>
<path fill="none" stroke="#7b8894" d="M794.03,-1416C841.73,-1416 906,-1416 906,-1416 906,-1416 906,-990.5 906,-990.5 906,-990.5 1227.71,-990.5 1227.71,-990.5"/>
<polygon fill="#7b8894" stroke="#7b8894" points="1227.71,-994 1237.71,-990.5 1227.71,-987 1227.71,-994"/>
</g>
<!-- 7534c3f7f1f241c9bff387f404bdcd8c -->
<g id="node20" class="node">
<title>7534c3f7f1f241c9bff387f404bdcd8c</title>
<image xlink:href="/usr/local/lib/python3.11/dist-packages/resources/aws/database/rds.png" width="101px" height="101px" preserveAspectRatio="xMinYMin meet" x="922" y="-383.5"/>
<text text-anchor="middle" x="972.5" y="-267.6" font-family="Sans-Serif" font-size="13.00" fill="#2d3436">RDS PostgreSQL</text>
<text text-anchor="middle" x="972.5" y="-253.6" font-family="Sans-Serif" font-size="13.00" fill="#2d3436">(Dados Transacionais)</text>
</g>
<!-- 6783f0f1430641d09fc48f12bea3ce4b&#45;&gt;7534c3f7f1f241c9bff387f404bdcd8c -->
<g id="edge20" class="edge">
<title>6783f0f1430641d09fc48f12bea3ce4b&#45;&gt;7534c3f7f1f241c9bff387f404bdcd8c</title>
<path fill="none" stroke="#7b8894" d="M794.05,-830.5C824.73,-830.5 858,-830.5 858,-830.5 858,-830.5 858,-408.75 858,-408.75 858,-408.75 911.95,-408.75 911.95,-408.75"/>
<polygon fill="#7b8894" stroke="#7b8894" points="911.95,-412.25 921.95,-408.75 911.95,-405.25 911.95,-412.25"/>
</g>
<!-- 6783f0f1430641d09fc48f12bea3ce4b&#45;&gt;02e6a1a5843240fea277eae180ccf0b9 -->
<g id="edge30" class="edge">
<title>6783f0f1430641d09fc48f12bea3ce4b&#45;&gt;02e6a1a5843240fea277eae180ccf0b9</title>
<path fill="none" stroke="#7b8894" d="M794.28,-924.5C794.28,-924.5 1227.65,-924.5 1227.65,-924.5"/>
<polygon fill="#7b8894" stroke="#7b8894" points="1227.65,-928 1237.65,-924.5 1227.65,-921 1227.65,-928"/>
</g>
<!-- 78223e4eb34e463eb59450b6267652ec&#45;&gt;7534c3f7f1f241c9bff387f404bdcd8c -->
<g id="edge21" class="edge">
<title>78223e4eb34e463eb59450b6267652ec&#45;&gt;7534c3f7f1f241c9bff387f404bdcd8c</title>
<path fill="none" stroke="#7b8894" d="M794.19,-670.17C818.33,-670.17 842,-670.17 842,-670.17 842,-670.17 842,-406.33 842,-406.33 842,-406.33 911.67,-406.33 911.67,-406.33"/>
<polygon fill="#7b8894" stroke="#7b8894" points="911.67,-409.83 921.67,-406.33 911.67,-402.83 911.67,-409.83"/>
</g>
<!-- 78223e4eb34e463eb59450b6267652ec&#45;&gt;02e6a1a5843240fea277eae180ccf0b9 -->
<g id="edge31" class="edge">
<title>78223e4eb34e463eb59450b6267652ec&#45;&gt;02e6a1a5843240fea277eae180ccf0b9</title>
<path fill="none" stroke="#7b8894" d="M794.36,-715.83C925.33,-715.83 1264,-715.83 1264,-715.83 1264,-715.83 1264,-846.22 1264,-846.22"/>
<polygon fill="#7b8894" stroke="#7b8894" points="1260.5,-846.22 1264,-856.22 1267.5,-846.22 1260.5,-846.22"/>
</g>
<!-- 799d75f4146a4d80b5bdb1b78ca75f4f&#45;&gt;7534c3f7f1f241c9bff387f404bdcd8c -->
<g id="edge22" class="edge">
<title>799d75f4146a4d80b5bdb1b78ca75f4f&#45;&gt;7534c3f7f1f241c9bff387f404bdcd8c</title>
<path fill="none" stroke="#7b8894" d="M794.04,-298.75C794.04,-298.75 911.7,-298.75 911.7,-298.75"/>
<polygon fill="#7b8894" stroke="#7b8894" points="911.7,-302.25 921.7,-298.75 911.7,-295.25 911.7,-302.25"/>
</g>
<!-- 799d75f4146a4d80b5bdb1b78ca75f4f&#45;&gt;7534c3f7f1f241c9bff387f404bdcd8c -->
<g id="edge26" class="edge">
<title>799d75f4146a4d80b5bdb1b78ca75f4f&#45;&gt;7534c3f7f1f241c9bff387f404bdcd8c</title>
<path fill="none" stroke="#7b8894" d="M794.04,-333C794.04,-333 911.7,-333 911.7,-333"/>
<polygon fill="#7b8894" stroke="#7b8894" points="911.7,-336.5 921.7,-333 911.7,-329.5 911.7,-336.5"/>
</g>
<!-- 9ddd6096011f4677b3cc4357fa85202a -->
<g id="node21" class="node">
<title>9ddd6096011f4677b3cc4357fa85202a</title>
<image xlink:href="/usr/local/lib/python3.11/dist-packages/resources/aws/database/elasticache.png" width="101px" height="101px" preserveAspectRatio="xMinYMin meet" x="922" y="-174.5"/>
<text text-anchor="middle" x="972.5" y="-58.6" font-family="Sans-Serif" font-size="13.00" fill="#2d3436">Redis</text>
<text text-anchor="middle" x="972.5" y="-44.6" font-family="Sans-Serif" font-size="13.00" fill="#2d3436">(Assentos + TTL/Lock)</text>
</g>
<!-- 799d75f4146a4d80b5bdb1b78ca75f4f&#45;&gt;9ddd6096011f4677b3cc4357fa85202a -->
<g id="edge29" class="edge">
<title>799d75f4146a4d80b5bdb1b78ca75f4f&#45;&gt;9ddd6096011f4677b3cc4357fa85202a</title>
<path fill="none" stroke="#7b8894" d="M744,-264.4C744,-248.31 744,-235.75 744,-235.75 744,-235.75 956,-235.75 956,-235.75 956,-235.75 956,-217.26 956,-217.26"/>
<polygon fill="#7b8894" stroke="#7b8894" points="959.5,-217.26 956,-207.26 952.5,-217.26 959.5,-217.26"/>
</g>
<!-- 799d75f4146a4d80b5bdb1b78ca75f4f&#45;&gt;02e6a1a5843240fea277eae180ccf0b9 -->
<g id="edge32" class="edge">
<title>799d75f4146a4d80b5bdb1b78ca75f4f&#45;&gt;02e6a1a5843240fea277eae180ccf0b9</title>
<path fill="none" stroke="#7b8894" d="M794.24,-367.25C803.34,-367.25 810,-367.25 810,-367.25 810,-367.25 810,-907.5 810,-907.5 810,-907.5 1227.75,-907.5 1227.75,-907.5"/>
<polygon fill="#7b8894" stroke="#7b8894" points="1227.75,-911 1237.75,-907.5 1227.75,-904 1227.75,-911"/>
</g>
<!-- f5ad6d0914854e5fae13866050fbd716&#45;&gt;7534c3f7f1f241c9bff387f404bdcd8c -->
<g id="edge23" class="edge">
<title>f5ad6d0914854e5fae13866050fbd716&#45;&gt;7534c3f7f1f241c9bff387f404bdcd8c</title>
<path fill="none" stroke="#7b8894" d="M744,-444.23C744,-422.44 744,-403.92 744,-403.92 744,-403.92 911.79,-403.92 911.79,-403.92"/>
<polygon fill="#7b8894" stroke="#7b8894" points="911.79,-407.42 921.79,-403.92 911.79,-400.42 911.79,-407.42"/>
</g>
<!-- f5ad6d0914854e5fae13866050fbd716&#45;&gt;02e6a1a5843240fea277eae180ccf0b9 -->
<g id="edge33" class="edge">
<title>f5ad6d0914854e5fae13866050fbd716&#45;&gt;02e6a1a5843240fea277eae180ccf0b9</title>
<path fill="none" stroke="#7b8894" d="M744,-581.68C744,-598.36 744,-611.5 744,-611.5 744,-611.5 1289,-611.5 1289,-611.5 1289,-611.5 1289,-846.2 1289,-846.2"/>
<polygon fill="#7b8894" stroke="#7b8894" points="1285.5,-846.2 1289,-856.2 1292.5,-846.2 1285.5,-846.2"/>
</g>
<!-- 9e6ac9d47a304221b90e0e2c72a44192&#45;&gt;7534c3f7f1f241c9bff387f404bdcd8c -->
<g id="edge24" class="edge">
<title>9e6ac9d47a304221b90e0e2c72a44192&#45;&gt;7534c3f7f1f241c9bff387f404bdcd8c</title>
<path fill="none" stroke="#7b8894" d="M794.28,-216.67C866.44,-216.67 990,-216.67 990,-216.67 990,-216.67 990,-239.69 990,-239.69"/>
<polygon fill="#7b8894" stroke="#7b8894" points="986.5,-239.69 990,-249.69 993.5,-239.69 986.5,-239.69"/>
</g>
<!-- 9e6ac9d47a304221b90e0e2c72a44192&#45;&gt;9ddd6096011f4677b3cc4357fa85202a -->
<g id="edge28" class="edge">
<title>9e6ac9d47a304221b90e0e2c72a44192&#45;&gt;9ddd6096011f4677b3cc4357fa85202a</title>
<path fill="none" stroke="#7b8894" d="M794.04,-145.75C794.04,-145.75 911.7,-145.75 911.7,-145.75"/>
<polygon fill="#7b8894" stroke="#7b8894" points="911.7,-149.25 921.7,-145.75 911.7,-142.25 911.7,-149.25"/>
</g>
<!-- 9e6ac9d47a304221b90e0e2c72a44192&#45;&gt;02e6a1a5843240fea277eae180ccf0b9 -->
<g id="edge34" class="edge">
<title>9e6ac9d47a304221b90e0e2c72a44192&#45;&gt;02e6a1a5843240fea277eae180ccf0b9</title>
<path fill="none" stroke="#7b8894" d="M794.34,-211.83C811.32,-211.83 826,-211.83 826,-211.83 826,-211.83 826,-890.5 826,-890.5 826,-890.5 1227.68,-890.5 1227.68,-890.5"/>
<polygon fill="#7b8894" stroke="#7b8894" points="1227.68,-894 1237.68,-890.5 1227.68,-887 1227.68,-894"/>
</g>
<!-- 3de56b3f63464be1bbf8231c35c89a57 -->
<g id="node14" class="node">
<title>3de56b3f63464be1bbf8231c35c89a57</title>
<image xlink:href="/usr/local/lib/python3.11/dist-packages/resources/aws/integration/simple-queue-service-sqs.png" width="101px" height="101px" preserveAspectRatio="xMinYMin meet" x="922" y="-1471.5"/>
<text text-anchor="middle" x="972.5" y="-1355.6" font-family="Sans-Serif" font-size="13.00" fill="#2d3436">SQS Pagamento</text>
<text text-anchor="middle" x="972.5" y="-1341.6" font-family="Sans-Serif" font-size="13.00" fill="#2d3436">(Retry + Message ID)</text>
</g>
<!-- 1bf2202122254a179d001e9a66c06e10&#45;&gt;3de56b3f63464be1bbf8231c35c89a57 -->
<g id="edge12" class="edge">
<title>1bf2202122254a179d001e9a66c06e10&#45;&gt;3de56b3f63464be1bbf8231c35c89a57</title>
<path fill="none" stroke="#7b8894" d="M744,-1301.57C744,-1323.76 744,-1342.75 744,-1342.75 744,-1342.75 911.79,-1342.75 911.79,-1342.75"/>
<polygon fill="#7b8894" stroke="#7b8894" points="911.79,-1346.25 921.79,-1342.75 911.79,-1339.25 911.79,-1346.25"/>
</g>
<!-- a2450a1ad7fc47e892fdbfcf61c580c0 -->
<g id="node17" class="node">
<title>a2450a1ad7fc47e892fdbfcf61c580c0</title>
<image xlink:href="/usr/local/lib/python3.11/dist-packages/resources/aws/integration/simple-queue-service-sqs.png" width="101px" height="101px" preserveAspectRatio="xMinYMin meet" x="922" y="-580.5"/>
<text text-anchor="middle" x="972.5" y="-465.1" font-family="Sans-Serif" font-size="13.00" fill="#2d3436">SQS Notificações</text>
</g>
<!-- 1bf2202122254a179d001e9a66c06e10&#45;&gt;a2450a1ad7fc47e892fdbfcf61c580c0 -->
<g id="edge17" class="edge">
<title>1bf2202122254a179d001e9a66c06e10&#45;&gt;a2450a1ad7fc47e892fdbfcf61c580c0</title>
<path fill="none" stroke="#7b8894" d="M794.28,-1208C866.44,-1208 990,-1208 990,-1208 990,-1208 990,-608.74 990,-608.74"/>
<polygon fill="#7b8894" stroke="#7b8894" points="993.5,-608.74 990,-598.74 986.5,-608.74 993.5,-608.74"/>
</g>
<!-- 1bf2202122254a179d001e9a66c06e10&#45;&gt;7534c3f7f1f241c9bff387f404bdcd8c -->
<g id="edge25" class="edge">
<title>1bf2202122254a179d001e9a66c06e10&#45;&gt;7534c3f7f1f241c9bff387f404bdcd8c</title>
<path fill="none" stroke="#7b8894" d="M794.33,-1186.25C836.64,-1186.25 890,-1186.25 890,-1186.25 890,-1186.25 890,-413.58 890,-413.58 890,-413.58 911.66,-413.58 911.66,-413.58"/>
<polygon fill="#7b8894" stroke="#7b8894" points="911.66,-417.08 921.66,-413.58 911.66,-410.08 911.66,-417.08"/>
</g>
<!-- 1bf2202122254a179d001e9a66c06e10&#45;&gt;02e6a1a5843240fea277eae180ccf0b9 -->
<g id="edge35" class="edge">
<title>1bf2202122254a179d001e9a66c06e10&#45;&gt;02e6a1a5843240fea277eae180ccf0b9</title>
<path fill="none" stroke="#7b8894" d="M794.33,-1229.75C929.75,-1229.75 1289,-1229.75 1289,-1229.75 1289,-1229.75 1289,-1003.77 1289,-1003.77"/>
<polygon fill="#7b8894" stroke="#7b8894" points="1292.5,-1003.77 1289,-993.77 1285.5,-1003.77 1292.5,-1003.77"/>
</g>
<!-- ca97293a66f3460783698e7b3204b14b -->
<g id="node13" class="node">
<title>ca97293a66f3460783698e7b3204b14b</title>
<image xlink:href="/usr/local/lib/python3.11/dist-packages/resources/aws/compute/elastic-container-service.png" width="101px" height="101px" preserveAspectRatio="xMinYMin meet" x="693" y="-1103.5"/>
<text text-anchor="middle" x="743.5" y="-988.1" font-family="Sans-Serif" font-size="13.00" fill="#2d3436">Pagamento</text>
</g>
<!-- ca97293a66f3460783698e7b3204b14b&#45;&gt;a2450a1ad7fc47e892fdbfcf61c580c0 -->
<g id="edge16" class="edge">
<title>ca97293a66f3460783698e7b3204b14b&#45;&gt;a2450a1ad7fc47e892fdbfcf61c580c0</title>
<path fill="none" stroke="#7b8894" d="M794.13,-987.5C856.98,-987.5 956,-987.5 956,-987.5 956,-987.5 956,-608.99 956,-608.99"/>
<polygon fill="#7b8894" stroke="#7b8894" points="959.5,-608.99 956,-598.99 952.5,-608.99 959.5,-608.99"/>
</g>
<!-- ca97293a66f3460783698e7b3204b14b&#45;&gt;7534c3f7f1f241c9bff387f404bdcd8c -->
<g id="edge27" class="edge">
<title>ca97293a66f3460783698e7b3204b14b&#45;&gt;7534c3f7f1f241c9bff387f404bdcd8c</title>
<path fill="none" stroke="#7b8894" d="M794.33,-986C830.97,-986 874,-986 874,-986 874,-986 874,-411.17 874,-411.17 874,-411.17 911.81,-411.17 911.81,-411.17"/>
<polygon fill="#7b8894" stroke="#7b8894" points="911.81,-414.67 921.81,-411.17 911.81,-407.67 911.81,-414.67"/>
</g>
<!-- ca97293a66f3460783698e7b3204b14b&#45;&gt;02e6a1a5843240fea277eae180ccf0b9 -->
<g id="edge36" class="edge">
<title>ca97293a66f3460783698e7b3204b14b&#45;&gt;02e6a1a5843240fea277eae180ccf0b9</title>
<path fill="none" stroke="#7b8894" d="M794.28,-989C794.28,-989 1227.65,-989 1227.65,-989"/>
<polygon fill="#7b8894" stroke="#7b8894" points="1227.65,-992.5 1237.65,-989 1227.65,-985.5 1227.65,-992.5"/>
</g>
<!-- 9a58e3d3f0bb4a74b30b0e30cde27db7 -->
<g id="node15" class="node">
<title>9a58e3d3f0bb4a74b30b0e30cde27db7</title>
<image xlink:href="/usr/local/lib/python3.11/dist-packages/resources/aws/compute/lambda.png" width="101px" height="101px" preserveAspectRatio="xMinYMin meet" x="1077" y="-1370.5"/>
<text text-anchor="middle" x="1127.5" y="-1255.1" font-family="Sans-Serif" font-size="13.00" fill="#2d3436">Lambda Processa Pagamento</text>
</g>
<!-- 3de56b3f63464be1bbf8231c35c89a57&#45;&gt;9a58e3d3f0bb4a74b30b0e30cde27db7 -->
<g id="edge13" class="edge">
<title>3de56b3f63464be1bbf8231c35c89a57&#45;&gt;9a58e3d3f0bb4a74b30b0e30cde27db7</title>
<path fill="none" stroke="#7b8894" d="M1023.25,-1363.25C1023.25,-1363.25 1066.9,-1363.25 1066.9,-1363.25"/>
<polygon fill="#7b8894" stroke="#7b8894" points="1066.9,-1366.75 1076.9,-1363.25 1066.9,-1359.75 1066.9,-1366.75"/>
</g>
<!-- 076268b7451745b493c95441ea366111 -->
<g id="node16" class="node">
<title>076268b7451745b493c95441ea366111</title>
<image xlink:href="/usr/local/lib/python3.11/dist-packages/resources/aws/integration/simple-queue-service-sqs.png" width="101px" height="101px" preserveAspectRatio="xMinYMin meet" x="1077" y="-1550.5"/>
<text text-anchor="middle" x="1127.5" y="-1435.1" font-family="Sans-Serif" font-size="13.00" fill="#2d3436">DLQ Pagamento</text>
</g>
<!-- 3de56b3f63464be1bbf8231c35c89a57&#45;&gt;076268b7451745b493c95441ea366111 -->
<g id="edge15" class="edge">
<title>3de56b3f63464be1bbf8231c35c89a57&#45;&gt;076268b7451745b493c95441ea366111</title>
<path fill="none" stroke="#7b8894" d="M1023.25,-1467.75C1023.25,-1467.75 1066.9,-1467.75 1066.9,-1467.75"/>
<polygon fill="#7b8894" stroke="#7b8894" points="1066.9,-1471.25 1076.9,-1467.75 1066.9,-1464.25 1066.9,-1471.25"/>
</g>
<!-- 9a58e3d3f0bb4a74b30b0e30cde27db7&#45;&gt;ca97293a66f3460783698e7b3204b14b -->
<g id="edge14" class="edge">
<title>9a58e3d3f0bb4a74b30b0e30cde27db7&#45;&gt;ca97293a66f3460783698e7b3204b14b</title>
<path fill="none" stroke="#7b8894" d="M1103,-1251.37C1103,-1173.6 1103,-1057.5 1103,-1057.5 1103,-1057.5 804.25,-1057.5 804.25,-1057.5"/>
<polygon fill="#7b8894" stroke="#7b8894" points="804.25,-1054 794.25,-1057.5 804.25,-1061 804.25,-1054"/>
</g>
<!-- 9a58e3d3f0bb4a74b30b0e30cde27db7&#45;&gt;02e6a1a5843240fea277eae180ccf0b9 -->
<g id="edge37" class="edge">
<title>9a58e3d3f0bb4a74b30b0e30cde27db7&#45;&gt;02e6a1a5843240fea277eae180ccf0b9</title>
<path fill="none" stroke="#7b8894" d="M1153,-1251.24C1153,-1155.06 1153,-992 1153,-992 1153,-992 1227.66,-992 1227.66,-992"/>
<polygon fill="#7b8894" stroke="#7b8894" points="1227.66,-995.5 1237.66,-992 1227.66,-988.5 1227.66,-995.5"/>
</g>
<!-- e28769a020774a50854632dd4f15b9fd -->
<g id="node18" class="node">
<title>e28769a020774a50854632dd4f15b9fd</title>
<image xlink:href="/usr/local/lib/python3.11/dist-packages/resources/aws/compute/lambda.png" width="101px" height="101px" preserveAspectRatio="xMinYMin meet" x="1077" y="-580.5"/>
<text text-anchor="middle" x="1127.5" y="-465.1" font-family="Sans-Serif" font-size="13.00" fill="#2d3436">Lambda Notificação</text>
</g>
<!-- a2450a1ad7fc47e892fdbfcf61c580c0&#45;&gt;e28769a020774a50854632dd4f15b9fd -->
<g id="edge18" class="edge">
<title>a2450a1ad7fc47e892fdbfcf61c580c0&#45;&gt;e28769a020774a50854632dd4f15b9fd</title>
<path fill="none" stroke="#7b8894" d="M1023.25,-530C1023.25,-530 1066.9,-530 1066.9,-530"/>
<polygon fill="#7b8894" stroke="#7b8894" points="1066.9,-533.5 1076.9,-530 1066.9,-526.5 1066.9,-533.5"/>
</g>
<!-- 97638a5d369c4925adfc359d7952dbed -->
<g id="node19" class="node">
<title>97638a5d369c4925adfc359d7952dbed</title>
<image xlink:href="/usr/local/lib/python3.11/dist-packages/resources/aws/compute/lambda.png" width="101px" height="101px" preserveAspectRatio="xMinYMin meet" x="1238" y="-580.5"/>
<text text-anchor="middle" x="1288.5" y="-465.1" font-family="Sans-Serif" font-size="13.00" fill="#2d3436">Lambda Envia Email</text>
</g>
<!-- e28769a020774a50854632dd4f15b9fd&#45;&gt;97638a5d369c4925adfc359d7952dbed -->
<g id="edge19" class="edge">
<title>e28769a020774a50854632dd4f15b9fd&#45;&gt;97638a5d369c4925adfc359d7952dbed</title>
<path fill="none" stroke="#7b8894" d="M1178.44,-530C1178.44,-530 1227.89,-530 1227.89,-530"/>
<polygon fill="#7b8894" stroke="#7b8894" points="1227.89,-533.5 1237.89,-530 1227.89,-526.5 1227.89,-533.5"/>
</g>
<!-- e28769a020774a50854632dd4f15b9fd&#45;&gt;02e6a1a5843240fea277eae180ccf0b9 -->
<g id="edge39" class="edge">
<title>e28769a020774a50854632dd4f15b9fd&#45;&gt;02e6a1a5843240fea277eae180ccf0b9</title>
<path fill="none" stroke="#7b8894" d="M1128,-598.69C1128,-698.93 1128,-873.5 1128,-873.5 1128,-873.5 1227.72,-873.5 1227.72,-873.5"/>
<polygon fill="#7b8894" stroke="#7b8894" points="1227.72,-877 1237.72,-873.5 1227.72,-870 1227.72,-877"/>
</g>
<!-- 97638a5d369c4925adfc359d7952dbed&#45;&gt;02e6a1a5843240fea277eae180ccf0b9 -->
<g id="edge40" class="edge">
<title>97638a5d369c4925adfc359d7952dbed&#45;&gt;02e6a1a5843240fea277eae180ccf0b9</title>
<path fill="none" stroke="#7b8894" d="M1314,-598.8C1314,-598.8 1314,-846.32 1314,-846.32"/>
<polygon fill="#7b8894" stroke="#7b8894" points="1310.5,-846.32 1314,-856.32 1317.5,-846.32 1310.5,-846.32"/>
</g>
</g>
</svg>
